<svg width="56" height="32" viewBox="0 0 56 32" fill="none" xmlns="http://www.w3.org/2000/svg">
<path d="M6.56 31H0.0800003V1.4H6.56V13.08H18V1.4H24.48V31H18V19.08H6.56V31ZM55.9869 16.16C55.9869 25.2 50.0269 31.48 41.4269 31.48C38.7869 31.48 36.4269 30.88 34.3869 29.8L33.5469 30.96H27.4269L30.5869 26.76C28.3069 24.12 26.9869 20.48 26.9869 16.2C26.9869 7.16 32.9069 0.879999 41.4669 0.879999C44.1869 0.879999 46.6669 1.52 48.7469 2.68L49.7469 1.36H55.5869L52.3869 5.64C54.6669 8.28 55.9869 11.92 55.9869 16.16ZM33.8269 16.16C33.8269 18.12 34.1869 19.8 34.8269 21.16L44.8669 7.8C43.9069 7.36 42.7869 7.12 41.5069 7.12C36.7069 7.12 33.8269 10.52 33.8269 16.16ZM49.1469 16.16C49.1469 14.28 48.8269 12.6 48.1869 11.28L38.2669 24.6C39.2269 25.04 40.3069 25.24 41.5069 25.24C46.2669 25.24 49.1469 21.76 49.1469 16.16Z" fill="#CE3C3C"/>
</svg>
