<svg width="112" height="112" viewBox="0 0 112 112" fill="none" xmlns="http://www.w3.org/2000/svg">
<path d="M52.1244 103.94C52.1244 102.19 53.5244 100.86 55.9604 100.86C58.3824 100.86 59.8524 102.19 59.9784 104.192H58.4104C58.3404 102.918 57.5284 102.092 55.9884 102.092C54.7144 102.092 53.7624 102.694 53.7624 103.73C53.7624 104.57 54.3084 104.99 55.4704 105.242L56.9264 105.522C58.3404 105.802 59.6284 106.516 59.6284 108.224C59.6284 109.918 58.1444 111.192 56.0584 111.192C53.9724 111.192 52.3904 109.918 52.2644 107.916H53.8324C53.9164 109.12 54.7844 109.96 56.0444 109.96C57.3464 109.96 58.0604 109.19 58.0604 108.322C58.0604 107.37 57.2344 107.034 56.2964 106.838L54.8124 106.544C53.0904 106.194 52.1244 105.438 52.1244 103.94Z" fill="black"/>
<path d="M45.7738 99.6078C48.5036 100.231 50.1114 102.939 49.451 105.832C48.7936 108.712 46.1734 110.44 43.4436 109.817C40.9868 109.257 39.3951 107.17 39.578 104.67L41.175 105.035C41.0866 106.68 42.1141 108.092 43.7383 108.463C45.6765 108.905 47.3997 107.647 47.895 105.477C48.3966 103.279 47.3899 101.398 45.4518 100.956C43.8275 100.585 42.2859 101.425 41.6516 102.946L40.0547 102.582C40.9777 100.236 43.317 99.0471 45.7738 99.6078Z" fill="black"/>
<path d="M38.2612 97.4037L39.6487 98.0718L35.2873 107.128L31.9068 105.5C29.8256 104.498 29.0689 102.875 29.9375 101.071C30.5632 99.7722 31.8629 99.1705 33.3957 99.5047L32.6734 94.7127L34.3384 95.5145L34.9561 100.008L36.6211 100.809L38.2612 97.4037ZM34.4586 105.3L36.0623 101.97L34.1576 101.053C32.871 100.433 31.8661 100.648 31.3376 101.746C30.8152 102.83 31.2674 103.763 32.554 104.383L34.4586 105.3Z" fill="black"/>
<path d="M28.0726 91.0172C30.3493 92.8328 30.6449 95.9874 28.7944 98.3078C26.9439 100.628 23.8201 101.02 21.5434 99.2045C19.2667 97.3889 18.9536 94.2562 20.8041 91.9358C22.6546 89.6153 25.7959 89.2016 28.0726 91.0172ZM27.2084 92.1008C25.5447 90.774 23.3961 91.2452 22.0519 92.9309C20.7076 94.6165 20.7438 96.7941 22.4075 98.1209C24.0713 99.4477 26.2024 98.9984 27.5466 97.3127C28.8908 95.6271 28.8721 93.4276 27.2084 92.1008Z" fill="black"/>
<path d="M18.7094 81.4135L22.5065 86.1748L14.6475 92.4422L13.6873 91.2381L20.4627 85.835L17.6258 82.2777L18.7094 81.4135Z" fill="black"/>
<path d="M13.9893 72.4784L16.6317 77.9653L7.57516 82.3267L6.90698 80.9392L14.7148 77.1792L12.7406 73.0798L13.9893 72.4784Z" fill="black"/>
<path d="M11 56.6519V59.8299H0.947999L0.947999 56.6519C0.947999 53.4459 2.992 51.5979 5.932 51.5979C8.83 51.5979 11 53.5159 11 56.6519ZM2.278 58.2899H9.67V56.7219C9.67 54.4119 8.242 53.1659 5.932 53.1659C3.664 53.1659 2.278 54.3979 2.278 56.7219L2.278 58.2899Z" fill="black"/>
<path d="M12.3334 46.0316C11.6854 48.8706 8.9715 50.5057 6.07791 49.8453C3.18432 49.1848 1.47594 46.5404 2.12392 43.7014C2.7719 40.8624 5.45849 39.2211 8.35207 39.8815C11.2457 40.542 12.9813 43.1926 12.3334 46.0316ZM10.9821 45.7232C11.4556 43.6486 10.0989 41.9173 7.99693 41.4375C5.89499 40.9578 3.94869 41.9352 3.47517 44.0098C3.00164 46.0845 4.33111 47.8095 6.43305 48.2893C8.535 48.7691 10.5086 47.7979 10.9821 45.7232Z" fill="black"/>
<path d="M16.3788 34.5598L8.35408 33.0572L14.5261 38.4069L13.8397 39.8323L3.64728 37.8296L4.30332 36.4673L12.1169 38.0858L6.05881 32.822L6.75129 31.3841L14.6443 32.8699L8.49463 27.764L9.15067 26.4017L17.0713 33.1218L16.3788 34.5598Z" fill="black"/>
<path d="M22.5819 25.7306L13.1419 24.9712L19.2824 29.8681L18.392 30.9845L10.5331 24.7172L11.5805 23.4037L20.7778 24.1307L14.8015 19.3648L15.6918 18.2483L23.5508 24.5156L22.5819 25.7306Z" fill="black"/>
<path d="M33.5231 9.32621C34.2547 8.9739 35.1517 9.28778 35.504 10.0194C35.8624 10.7636 35.5485 11.6606 34.8169 12.0129C34.0727 12.3713 33.1757 12.0574 32.8173 11.3132C32.465 10.5816 32.7789 9.6846 33.5231 9.32621Z" fill="#CE3C3C"/>
<path d="M55.3334 11L52.1554 3.314V11H50.7414V0.947999L52.6314 0.947999L56.0054 9.11L59.3654 0.947999H61.2694V11H59.8414V3.3L56.6494 11H55.3334Z" fill="black"/>
<path d="M67.6052 8.62872L66.7672 12.3003L65.2521 11.9545L66.0902 8.28292L63.9675 1.35078L65.6054 1.72462L67.2163 7.06088L71.0104 2.95827L72.539 3.30718L67.6052 8.62872Z" fill="black"/>
<path d="M86.5913 18.3619L85.0698 17.1486L82.8876 19.885L81.6836 18.9248L87.9509 11.0658L90.6764 13.2393C92.4386 14.6447 92.8612 16.45 91.5519 18.0919C90.2338 19.7447 88.3535 19.7672 86.5913 18.3619ZM89.8536 14.2485L88.3431 13.044L85.8816 16.1306L87.3921 17.3352C88.4538 18.1819 89.5622 18.1168 90.3391 17.1426C91.116 16.1685 90.9154 15.0952 89.8536 14.2485Z" fill="black"/>
<path d="M89.9465 26.3932L88.9863 25.1891L96.8453 18.9218L99.1846 21.8553C100.625 23.6613 100.602 25.4519 99.0372 26.7002C97.9098 27.5992 96.4777 27.5774 95.2417 26.6112L93.8134 31.2421L92.6612 29.7973L94.054 25.4812L92.9018 24.0364L89.9465 26.3932ZM96.7985 20.9289L93.9088 23.2333L95.2269 24.8861C96.1172 26.0026 97.1161 26.2446 98.0683 25.4852C99.0096 24.7345 99.0069 23.6981 98.1165 22.5817L96.7985 20.9289Z" fill="black"/>
<path d="M96.3551 36.5679C95.0917 33.9443 96.194 30.9738 98.8681 29.686C101.542 28.3983 104.527 29.4006 105.79 32.0243C107.054 34.6479 105.976 37.6062 103.302 38.894C100.628 40.1817 97.6186 39.1915 96.3551 36.5679ZM97.6039 35.9665C98.5272 37.8838 100.667 38.3915 102.61 37.456C104.552 36.5206 105.465 34.5429 104.541 32.6256C103.618 30.7084 101.503 30.1885 99.5605 31.124C97.6181 32.0594 96.6806 34.0493 97.6039 35.9665Z" fill="black"/>
<path d="M110.43 47.0712L104.001 48.5385C101.79 49.0432 100.129 48.058 99.6307 45.8742C99.1416 43.7313 100.2 42.1399 102.18 41.6305L102.526 43.1455C101.297 43.4836 100.695 44.3101 100.982 45.5658C101.272 46.8351 102.168 47.363 103.587 47.039L110.084 45.5561L110.43 47.0712Z" fill="black"/>
<path d="M102.344 59.7238H101V53.3538H111.052V59.6258H109.708V54.8938H106.852V59.2058H105.508V54.8938H102.344V59.7238Z" fill="black"/>
<path d="M99.6078 66.2262C100.231 63.4964 102.939 61.8886 105.832 62.549C108.712 63.2064 110.44 65.8266 109.817 68.5564C109.257 71.0132 107.17 72.6049 104.67 72.422L105.035 70.825C106.68 70.9134 108.092 69.8859 108.463 68.2617C108.905 66.3235 107.647 64.6003 105.477 64.105C103.279 63.6034 101.398 64.6101 100.956 66.5482C100.585 68.1725 101.425 69.7141 102.946 70.3484L102.582 71.9453C100.236 71.0223 99.0471 68.683 99.6078 66.2262Z" fill="black"/>
<path d="M96.1059 76.4338L96.774 75.0463L104.582 78.8063L106.003 75.8547L107.252 76.4561L103.741 83.7467L102.492 83.1454L103.914 80.1938L96.1059 76.4338Z" fill="black"/>
<path d="M91.0646 88.9202C89.6964 87.8291 89.5295 85.9053 91.0483 84.0007C92.5584 82.1071 94.5147 81.7871 96.1585 82.9368L95.1809 84.1627C94.1412 83.4231 92.9891 83.543 92.029 84.747C91.2346 85.743 91.1117 86.8627 91.9217 87.5086C92.5784 88.0323 93.2472 87.8673 94.1688 87.116L95.2955 86.1522C96.396 85.2213 97.7573 84.6594 99.0926 85.7243C100.417 86.7805 100.488 88.7351 99.1873 90.366C97.8867 91.9969 95.9043 92.4394 94.2605 91.2897L95.2381 90.0638C96.2318 90.7488 97.4297 90.5939 98.2153 89.6088C99.0271 88.5909 98.8703 87.5526 98.1916 87.0114C97.4473 86.4178 96.6696 86.8541 95.9316 87.4653L94.7764 88.4422C93.4292 89.5703 92.2358 89.8542 91.0646 88.9202Z" fill="black"/>
<path d="M78.4769 102.674C77.7453 103.026 76.8483 102.712 76.496 101.981C76.1376 101.236 76.4515 100.339 77.1831 99.9871C77.9273 99.6287 78.8243 99.9426 79.1827 100.687C79.535 101.418 79.2211 102.315 78.4769 102.674Z" fill="#CE3C3C"/>
</svg>
